<mxfile host="65bd71144e" pages="2">
    <diagram id="qw9c02lZV7VKCfLUnJL3" name="Concept">
        <mxGraphModel dx="718" dy="1136" grid="1" gridSize="10" guides="1" tooltips="1" connect="1" arrows="1" fold="1" page="1" pageScale="1" pageWidth="827" pageHeight="1169" math="0" shadow="0">
            <root>
                <mxCell id="0"/>
                <mxCell id="1" parent="0"/>
                <mxCell id="oe01qW1uo_qNiYhucz5h-29" value="" style="rounded=1;whiteSpace=wrap;html=1;fillColor=none;dashed=1;" parent="1" vertex="1">
                    <mxGeometry x="1200" y="760" width="1400" height="360" as="geometry"/>
                </mxCell>
                <mxCell id="oe01qW1uo_qNiYhucz5h-1" value="Proxy Request" style="edgeStyle=orthogonalEdgeStyle;rounded=0;orthogonalLoop=1;jettySize=auto;html=1;entryX=0;entryY=0.5;entryDx=0;entryDy=0;entryPerimeter=0;endArrow=classic;endFill=1;strokeColor=#000000;" parent="1" source="oe01qW1uo_qNiYhucz5h-2" target="oe01qW1uo_qNiYhucz5h-4" edge="1">
                    <mxGeometry x="-0.0465" y="15" relative="1" as="geometry">
                        <mxPoint as="offset"/>
                    </mxGeometry>
                </mxCell>
                <mxCell id="oe01qW1uo_qNiYhucz5h-2" value="API Gateway&lt;br&gt;Exposed API&lt;br&gt;Name: data_recorder&lt;br&gt;POST /data-recorder/01" style="sketch=0;points=[[0,0,0],[0.25,0,0],[0.5,0,0],[0.75,0,0],[1,0,0],[0,1,0],[0.25,1,0],[0.5,1,0],[0.75,1,0],[1,1,0],[0,0.25,0],[0,0.5,0],[0,0.75,0],[1,0.25,0],[1,0.5,0],[1,0.75,0]];outlineConnect=0;fontColor=#232F3E;gradientColor=#FF4F8B;gradientDirection=north;fillColor=#BC1356;strokeColor=#ffffff;dashed=0;verticalLabelPosition=bottom;verticalAlign=top;align=center;html=1;fontSize=12;fontStyle=0;aspect=fixed;shape=mxgraph.aws4.resourceIcon;resIcon=mxgraph.aws4.api_gateway;" parent="1" vertex="1">
                    <mxGeometry x="1610" y="946" width="78" height="78" as="geometry"/>
                </mxCell>
                <mxCell id="oe01qW1uo_qNiYhucz5h-37" style="edgeStyle=orthogonalEdgeStyle;rounded=0;orthogonalLoop=1;jettySize=auto;html=1;entryX=0;entryY=0.5;entryDx=0;entryDy=0;entryPerimeter=0;" parent="1" source="oe01qW1uo_qNiYhucz5h-4" target="oe01qW1uo_qNiYhucz5h-7" edge="1">
                    <mxGeometry relative="1" as="geometry">
                        <mxPoint x="1890" y="985" as="targetPoint"/>
                    </mxGeometry>
                </mxCell>
                <mxCell id="oe01qW1uo_qNiYhucz5h-4" value="data_recorder_01" style="sketch=0;points=[[0,0,0],[0.25,0,0],[0.5,0,0],[0.75,0,0],[1,0,0],[0,1,0],[0.25,1,0],[0.5,1,0],[0.75,1,0],[1,1,0],[0,0.25,0],[0,0.5,0],[0,0.75,0],[1,0.25,0],[1,0.5,0],[1,0.75,0]];outlineConnect=0;fontColor=#232F3E;gradientColor=#F78E04;gradientDirection=north;fillColor=#D05C17;strokeColor=#ffffff;dashed=0;verticalLabelPosition=bottom;verticalAlign=top;align=center;html=1;fontSize=12;fontStyle=0;aspect=fixed;shape=mxgraph.aws4.resourceIcon;resIcon=mxgraph.aws4.lambda;" parent="1" vertex="1">
                    <mxGeometry x="1860" y="946" width="78" height="78" as="geometry"/>
                </mxCell>
                <mxCell id="oe01qW1uo_qNiYhucz5h-5" value="" style="sketch=0;pointerEvents=1;shadow=0;dashed=0;html=1;strokeColor=none;labelPosition=center;verticalLabelPosition=bottom;verticalAlign=top;outlineConnect=0;align=center;shape=mxgraph.office.security.lock_unprotected;fillColor=#7FBA42;" parent="1" vertex="1">
                    <mxGeometry x="1880" y="870" width="38" height="55" as="geometry"/>
                </mxCell>
                <mxCell id="oe01qW1uo_qNiYhucz5h-6" style="edgeStyle=orthogonalEdgeStyle;rounded=0;orthogonalLoop=1;jettySize=auto;html=1;entryX=0;entryY=0.5;entryDx=0;entryDy=0;entryPerimeter=0;" parent="1" source="oe01qW1uo_qNiYhucz5h-7" target="oe01qW1uo_qNiYhucz5h-9" edge="1">
                    <mxGeometry relative="1" as="geometry"/>
                </mxCell>
                <mxCell id="oe01qW1uo_qNiYhucz5h-7" value="Kinesis&lt;br&gt;data_recorder_01" style="sketch=0;points=[[0,0,0],[0.25,0,0],[0.5,0,0],[0.75,0,0],[1,0,0],[0,1,0],[0.25,1,0],[0.5,1,0],[0.75,1,0],[1,1,0],[0,0.25,0],[0,0.5,0],[0,0.75,0],[1,0.25,0],[1,0.5,0],[1,0.75,0]];outlineConnect=0;fontColor=#232F3E;gradientColor=#945DF2;gradientDirection=north;fillColor=#5A30B5;strokeColor=#ffffff;dashed=0;verticalLabelPosition=bottom;verticalAlign=top;align=center;html=1;fontSize=12;fontStyle=0;aspect=fixed;shape=mxgraph.aws4.resourceIcon;resIcon=mxgraph.aws4.kinesis;" parent="1" vertex="1">
                    <mxGeometry x="2078" y="946" width="78" height="78" as="geometry"/>
                </mxCell>
                <mxCell id="oe01qW1uo_qNiYhucz5h-8" style="edgeStyle=orthogonalEdgeStyle;rounded=0;orthogonalLoop=1;jettySize=auto;html=1;entryX=0;entryY=0.5;entryDx=0;entryDy=0;entryPerimeter=0;" parent="1" source="oe01qW1uo_qNiYhucz5h-9" target="oe01qW1uo_qNiYhucz5h-11" edge="1">
                    <mxGeometry relative="1" as="geometry"/>
                </mxCell>
                <mxCell id="oe01qW1uo_qNiYhucz5h-9" value="data_recorder_kconvert" style="sketch=0;points=[[0,0,0],[0.25,0,0],[0.5,0,0],[0.75,0,0],[1,0,0],[0,1,0],[0.25,1,0],[0.5,1,0],[0.75,1,0],[1,1,0],[0,0.25,0],[0,0.5,0],[0,0.75,0],[1,0.25,0],[1,0.5,0],[1,0.75,0]];outlineConnect=0;fontColor=#232F3E;gradientColor=#F78E04;gradientDirection=north;fillColor=#D05C17;strokeColor=#ffffff;dashed=0;verticalLabelPosition=bottom;verticalAlign=top;align=center;html=1;fontSize=12;fontStyle=0;aspect=fixed;shape=mxgraph.aws4.resourceIcon;resIcon=mxgraph.aws4.lambda;" parent="1" vertex="1">
                    <mxGeometry x="2282" y="946" width="78" height="78" as="geometry"/>
                </mxCell>
                <mxCell id="oe01qW1uo_qNiYhucz5h-10" style="edgeStyle=orthogonalEdgeStyle;rounded=0;orthogonalLoop=1;jettySize=auto;html=1;entryX=0;entryY=0.5;entryDx=0;entryDy=0;entryPerimeter=0;" parent="1" source="oe01qW1uo_qNiYhucz5h-11" target="oe01qW1uo_qNiYhucz5h-13" edge="1">
                    <mxGeometry relative="1" as="geometry"/>
                </mxCell>
                <mxCell id="oe01qW1uo_qNiYhucz5h-11" value="Firehose&lt;br&gt;data_recorder_01" style="sketch=0;points=[[0,0,0],[0.25,0,0],[0.5,0,0],[0.75,0,0],[1,0,0],[0,1,0],[0.25,1,0],[0.5,1,0],[0.75,1,0],[1,1,0],[0,0.25,0],[0,0.5,0],[0,0.75,0],[1,0.25,0],[1,0.5,0],[1,0.75,0]];outlineConnect=0;fontColor=#232F3E;gradientColor=#945DF2;gradientDirection=north;fillColor=#5A30B5;strokeColor=#ffffff;dashed=0;verticalLabelPosition=bottom;verticalAlign=top;align=center;html=1;fontSize=12;fontStyle=0;aspect=fixed;shape=mxgraph.aws4.resourceIcon;resIcon=mxgraph.aws4.kinesis_data_firehose;" parent="1" vertex="1">
                    <mxGeometry x="2482" y="946" width="78" height="78" as="geometry"/>
                </mxCell>
                <mxCell id="oe01qW1uo_qNiYhucz5h-12" style="edgeStyle=orthogonalEdgeStyle;rounded=0;orthogonalLoop=1;jettySize=auto;html=1;entryX=0;entryY=0.5;entryDx=0;entryDy=0;entryPerimeter=0;" parent="1" source="oe01qW1uo_qNiYhucz5h-13" target="oe01qW1uo_qNiYhucz5h-15" edge="1">
                    <mxGeometry relative="1" as="geometry"/>
                </mxCell>
                <mxCell id="oe01qW1uo_qNiYhucz5h-13" value="data-recorder-bucket&lt;br&gt;/data-recordings/01" style="sketch=0;points=[[0,0,0],[0.25,0,0],[0.5,0,0],[0.75,0,0],[1,0,0],[0,1,0],[0.25,1,0],[0.5,1,0],[0.75,1,0],[1,1,0],[0,0.25,0],[0,0.5,0],[0,0.75,0],[1,0.25,0],[1,0.5,0],[1,0.75,0]];outlineConnect=0;fontColor=#232F3E;gradientColor=#60A337;gradientDirection=north;fillColor=#277116;strokeColor=#ffffff;dashed=0;verticalLabelPosition=bottom;verticalAlign=top;align=center;html=1;fontSize=12;fontStyle=0;aspect=fixed;shape=mxgraph.aws4.resourceIcon;resIcon=mxgraph.aws4.s3;" parent="1" vertex="1">
                    <mxGeometry x="2680" y="946" width="78" height="78" as="geometry"/>
                </mxCell>
                <mxCell id="oe01qW1uo_qNiYhucz5h-14" style="edgeStyle=orthogonalEdgeStyle;rounded=0;orthogonalLoop=1;jettySize=auto;html=1;entryX=0;entryY=0.5;entryDx=0;entryDy=0;entryPerimeter=0;" parent="1" source="oe01qW1uo_qNiYhucz5h-15" target="oe01qW1uo_qNiYhucz5h-17" edge="1">
                    <mxGeometry relative="1" as="geometry"/>
                </mxCell>
                <mxCell id="oe01qW1uo_qNiYhucz5h-15" value="data_recorder_01_event_handler" style="sketch=0;points=[[0,0,0],[0.25,0,0],[0.5,0,0],[0.75,0,0],[1,0,0],[0,1,0],[0.25,1,0],[0.5,1,0],[0.75,1,0],[1,1,0],[0,0.25,0],[0,0.5,0],[0,0.75,0],[1,0.25,0],[1,0.5,0],[1,0.75,0]];outlineConnect=0;fontColor=#232F3E;gradientColor=#F78E04;gradientDirection=north;fillColor=#D05C17;strokeColor=#ffffff;dashed=0;verticalLabelPosition=bottom;verticalAlign=top;align=center;html=1;fontSize=12;fontStyle=0;aspect=fixed;shape=mxgraph.aws4.resourceIcon;resIcon=mxgraph.aws4.lambda;" parent="1" vertex="1">
                    <mxGeometry x="2920" y="946" width="78" height="78" as="geometry"/>
                </mxCell>
                <mxCell id="oe01qW1uo_qNiYhucz5h-16" style="edgeStyle=orthogonalEdgeStyle;rounded=0;orthogonalLoop=1;jettySize=auto;html=1;entryX=0;entryY=0.5;entryDx=0;entryDy=0;entryPerimeter=0;" parent="1" source="oe01qW1uo_qNiYhucz5h-17" target="oe01qW1uo_qNiYhucz5h-19" edge="1">
                    <mxGeometry relative="1" as="geometry"/>
                </mxCell>
                <mxCell id="oe01qW1uo_qNiYhucz5h-17" value="data_recorder_01_sns" style="sketch=0;points=[[0,0,0],[0.25,0,0],[0.5,0,0],[0.75,0,0],[1,0,0],[0,1,0],[0.25,1,0],[0.5,1,0],[0.75,1,0],[1,1,0],[0,0.25,0],[0,0.5,0],[0,0.75,0],[1,0.25,0],[1,0.5,0],[1,0.75,0]];outlineConnect=0;fontColor=#232F3E;gradientColor=#FF4F8B;gradientDirection=north;fillColor=#BC1356;strokeColor=#ffffff;dashed=0;verticalLabelPosition=bottom;verticalAlign=top;align=center;html=1;fontSize=12;fontStyle=0;aspect=fixed;shape=mxgraph.aws4.resourceIcon;resIcon=mxgraph.aws4.sns;" parent="1" vertex="1">
                    <mxGeometry x="3160" y="946" width="78" height="78" as="geometry"/>
                </mxCell>
                <mxCell id="oe01qW1uo_qNiYhucz5h-18" style="edgeStyle=orthogonalEdgeStyle;rounded=0;orthogonalLoop=1;jettySize=auto;html=1;entryX=0;entryY=0.5;entryDx=0;entryDy=0;entryPerimeter=0;" parent="1" source="oe01qW1uo_qNiYhucz5h-19" target="oe01qW1uo_qNiYhucz5h-20" edge="1">
                    <mxGeometry relative="1" as="geometry"/>
                </mxCell>
                <mxCell id="oe01qW1uo_qNiYhucz5h-19" value="SQS&lt;br&gt;data_recorder_01" style="sketch=0;points=[[0,0,0],[0.25,0,0],[0.5,0,0],[0.75,0,0],[1,0,0],[0,1,0],[0.25,1,0],[0.5,1,0],[0.75,1,0],[1,1,0],[0,0.25,0],[0,0.5,0],[0,0.75,0],[1,0.25,0],[1,0.5,0],[1,0.75,0]];outlineConnect=0;fontColor=#232F3E;gradientColor=#FF4F8B;gradientDirection=north;fillColor=#BC1356;strokeColor=#ffffff;dashed=0;verticalLabelPosition=bottom;verticalAlign=top;align=center;html=1;fontSize=12;fontStyle=0;aspect=fixed;shape=mxgraph.aws4.resourceIcon;resIcon=mxgraph.aws4.sqs;" parent="1" vertex="1">
                    <mxGeometry x="3348" y="946" width="78" height="78" as="geometry"/>
                </mxCell>
                <mxCell id="oe01qW1uo_qNiYhucz5h-20" value="data_recorder_01_s3_event_handler" style="sketch=0;points=[[0,0,0],[0.25,0,0],[0.5,0,0],[0.75,0,0],[1,0,0],[0,1,0],[0.25,1,0],[0.5,1,0],[0.75,1,0],[1,1,0],[0,0.25,0],[0,0.5,0],[0,0.75,0],[1,0.25,0],[1,0.5,0],[1,0.75,0]];outlineConnect=0;fontColor=#232F3E;gradientColor=#F78E04;gradientDirection=north;fillColor=#D05C17;strokeColor=#ffffff;dashed=0;verticalLabelPosition=bottom;verticalAlign=top;align=center;html=1;fontSize=12;fontStyle=0;aspect=fixed;shape=mxgraph.aws4.resourceIcon;resIcon=mxgraph.aws4.lambda;" parent="1" vertex="1">
                    <mxGeometry x="3560" y="946" width="78" height="78" as="geometry"/>
                </mxCell>
                <mxCell id="oe01qW1uo_qNiYhucz5h-21" value="Route messages based on configuration.&lt;br&gt;NEW messages in&amp;nbsp;&lt;span style=&quot;color: rgb(35, 47, 62); text-align: center;&quot;&gt;/data-recordings/01&lt;/span&gt;&lt;span style=&quot;color: rgb(35, 47, 62); text-align: center;&quot;&gt;/ is routed to SNS topic &quot;&lt;/span&gt;&lt;span style=&quot;color: rgb(35, 47, 62); text-align: center;&quot;&gt;data_recorder_01&lt;/span&gt;&lt;span style=&quot;color: rgb(35, 47, 62); text-align: center;&quot;&gt;_sns&lt;/span&gt;&lt;span style=&quot;color: rgb(35, 47, 62); text-align: center;&quot;&gt;&quot;&lt;/span&gt;" style="text;html=1;strokeColor=#d6b656;fillColor=#fff2cc;align=left;verticalAlign=middle;whiteSpace=wrap;rounded=0;" parent="1" vertex="1">
                    <mxGeometry x="2920" y="800" width="320" height="80" as="geometry"/>
                </mxCell>
                <mxCell id="oe01qW1uo_qNiYhucz5h-22" value="" style="endArrow=none;dashed=1;html=1;rounded=0;strokeColor=#000000;entryX=0.5;entryY=0;entryDx=0;entryDy=0;exitX=0.5;exitY=1;exitDx=0;exitDy=0;entryPerimeter=0;" parent="1" source="oe01qW1uo_qNiYhucz5h-21" target="oe01qW1uo_qNiYhucz5h-15" edge="1">
                    <mxGeometry width="50" height="50" relative="1" as="geometry">
                        <mxPoint x="2800" y="1435" as="sourcePoint"/>
                        <mxPoint x="2890" y="1380" as="targetPoint"/>
                    </mxGeometry>
                </mxCell>
                <mxCell id="oe01qW1uo_qNiYhucz5h-23" style="edgeStyle=orthogonalEdgeStyle;rounded=0;orthogonalLoop=1;jettySize=auto;html=1;entryX=0.5;entryY=0;entryDx=0;entryDy=0;entryPerimeter=0;" parent="1" source="oe01qW1uo_qNiYhucz5h-24" target="oe01qW1uo_qNiYhucz5h-13" edge="1">
                    <mxGeometry relative="1" as="geometry"/>
                </mxCell>
                <mxCell id="oe01qW1uo_qNiYhucz5h-24" value="Athena" style="sketch=0;points=[[0,0,0],[0.25,0,0],[0.5,0,0],[0.75,0,0],[1,0,0],[0,1,0],[0.25,1,0],[0.5,1,0],[0.75,1,0],[1,1,0],[0,0.25,0],[0,0.5,0],[0,0.75,0],[1,0.25,0],[1,0.5,0],[1,0.75,0]];outlineConnect=0;fontColor=#232F3E;gradientColor=#945DF2;gradientDirection=north;fillColor=#5A30B5;strokeColor=#ffffff;dashed=0;verticalLabelPosition=bottom;verticalAlign=top;align=center;html=1;fontSize=12;fontStyle=0;aspect=fixed;shape=mxgraph.aws4.resourceIcon;resIcon=mxgraph.aws4.athena;" parent="1" vertex="1">
                    <mxGeometry x="2520" y="520" width="78" height="78" as="geometry"/>
                </mxCell>
                <mxCell id="oe01qW1uo_qNiYhucz5h-25" value="Converts the data to CSV" style="text;html=1;strokeColor=#d6b656;fillColor=#fff2cc;align=left;verticalAlign=middle;whiteSpace=wrap;rounded=0;" parent="1" vertex="1">
                    <mxGeometry x="2140" y="820" width="180" height="60" as="geometry"/>
                </mxCell>
                <mxCell id="oe01qW1uo_qNiYhucz5h-26" value="" style="endArrow=none;dashed=1;html=1;rounded=0;strokeColor=#000000;entryX=0.5;entryY=0;entryDx=0;entryDy=0;exitX=0.5;exitY=1;exitDx=0;exitDy=0;entryPerimeter=0;" parent="1" source="oe01qW1uo_qNiYhucz5h-25" target="oe01qW1uo_qNiYhucz5h-9" edge="1">
                    <mxGeometry width="50" height="50" relative="1" as="geometry">
                        <mxPoint x="3090" y="890" as="sourcePoint"/>
                        <mxPoint x="2968.999999999999" y="956" as="targetPoint"/>
                    </mxGeometry>
                </mxCell>
                <mxCell id="oe01qW1uo_qNiYhucz5h-28" style="edgeStyle=orthogonalEdgeStyle;rounded=0;orthogonalLoop=1;jettySize=auto;html=1;entryX=0;entryY=0.5;entryDx=0;entryDy=0;entryPerimeter=0;" parent="1" source="oe01qW1uo_qNiYhucz5h-27" target="oe01qW1uo_qNiYhucz5h-2" edge="1">
                    <mxGeometry relative="1" as="geometry"/>
                </mxCell>
                <mxCell id="oe01qW1uo_qNiYhucz5h-27" value="Data Producer" style="sketch=0;outlineConnect=0;fontColor=#232F3E;gradientColor=none;fillColor=#232F3D;strokeColor=none;dashed=0;verticalLabelPosition=bottom;verticalAlign=top;align=center;html=1;fontSize=12;fontStyle=0;aspect=fixed;pointerEvents=1;shape=mxgraph.aws4.user;" parent="1" vertex="1">
                    <mxGeometry x="1360" y="946" width="78" height="78" as="geometry"/>
                </mxCell>
                <mxCell id="oe01qW1uo_qNiYhucz5h-30" value="Data Capturing / Ingestion" style="text;html=1;strokeColor=none;fillColor=none;align=center;verticalAlign=middle;whiteSpace=wrap;rounded=0;dashed=1;" parent="1" vertex="1">
                    <mxGeometry x="1230" y="770" width="190" height="30" as="geometry"/>
                </mxCell>
                <mxCell id="oe01qW1uo_qNiYhucz5h-31" value="" style="rounded=1;whiteSpace=wrap;html=1;fillColor=none;dashed=1;" parent="1" vertex="1">
                    <mxGeometry x="2840" y="750" width="920" height="360" as="geometry"/>
                </mxCell>
                <mxCell id="oe01qW1uo_qNiYhucz5h-32" value="Data Processing On Event" style="text;html=1;strokeColor=none;fillColor=none;align=center;verticalAlign=middle;whiteSpace=wrap;rounded=0;dashed=1;" parent="1" vertex="1">
                    <mxGeometry x="3514" y="770" width="170" height="30" as="geometry"/>
                </mxCell>
                <mxCell id="oe01qW1uo_qNiYhucz5h-33" value="" style="rounded=1;whiteSpace=wrap;html=1;fillColor=none;dashed=1;" parent="1" vertex="1">
                    <mxGeometry x="2400" y="440" width="400" height="240" as="geometry"/>
                </mxCell>
                <mxCell id="oe01qW1uo_qNiYhucz5h-34" value="Query All Data" style="text;html=1;strokeColor=none;fillColor=none;align=center;verticalAlign=middle;whiteSpace=wrap;rounded=0;dashed=1;" parent="1" vertex="1">
                    <mxGeometry x="2515" y="450" width="170" height="30" as="geometry"/>
                </mxCell>
            </root>
        </mxGraphModel>
    </diagram>
    <diagram id="UgiV6qb9YlKRPf1RZj1T" name="Lab2">
        <mxGraphModel dx="3199" dy="1136" grid="1" gridSize="10" guides="1" tooltips="1" connect="1" arrows="1" fold="1" page="1" pageScale="1" pageWidth="827" pageHeight="1169" math="0" shadow="0">
            <root>
                <mxCell id="0"/>
                <mxCell id="1" parent="0"/>
                <mxCell id="gmtj91rclVVDiSBkEWJ0-36" value="" style="rounded=0;whiteSpace=wrap;html=1;dashed=1;fillColor=#f5f5f5;fontColor=#333333;strokeColor=#666666;" parent="1" vertex="1">
                    <mxGeometry x="2320" y="1240" width="2400" height="1600" as="geometry"/>
                </mxCell>
                <mxCell id="gmtj91rclVVDiSBkEWJ0-35" value="" style="rounded=0;whiteSpace=wrap;html=1;dashed=1;" parent="1" vertex="1">
                    <mxGeometry x="360" y="1240" width="1960" height="1600" as="geometry"/>
                </mxCell>
                <mxCell id="gmtj91rclVVDiSBkEWJ0-34" value="" style="rounded=0;whiteSpace=wrap;html=1;dashed=1;fillColor=#f5f5f5;fontColor=#333333;strokeColor=#666666;" parent="1" vertex="1">
                    <mxGeometry x="-1480" y="1240" width="1840" height="1600" as="geometry"/>
                </mxCell>
                <mxCell id="gmtj91rclVVDiSBkEWJ0-25" value="" style="rounded=1;whiteSpace=wrap;html=1;fillColor=none;dashed=1;" parent="1" vertex="1">
                    <mxGeometry x="838" y="1731" width="790" height="480" as="geometry"/>
                </mxCell>
                <mxCell id="gmtj91rclVVDiSBkEWJ0-17" value="" style="rounded=1;whiteSpace=wrap;html=1;fillColor=none;dashed=1;" parent="1" vertex="1">
                    <mxGeometry x="4010" y="2070" width="590" height="140" as="geometry"/>
                </mxCell>
                <mxCell id="gmtj91rclVVDiSBkEWJ0-14" value="PublicEventApiGatewaySandboxStage" style="fillColor=none;strokeColor=#5A6C86;dashed=1;verticalAlign=top;fontStyle=0;fontColor=#5A6C86;" parent="1" vertex="1">
                    <mxGeometry x="-1340" y="2011" width="1120" height="400" as="geometry"/>
                </mxCell>
                <mxCell id="gmtj91rclVVDiSBkEWJ0-15" value="PublicEventApiGatewaySandboxStageDeployment" style="fillColor=none;strokeColor=#147EBA;dashed=1;verticalAlign=top;fontStyle=0;fontColor=#147EBA;" parent="1" vertex="1">
                    <mxGeometry x="-1300" y="2061" width="1040" height="290" as="geometry"/>
                </mxCell>
                <mxCell id="gmtj91rclVVDiSBkEWJ0-13" value="" style="rounded=1;whiteSpace=wrap;html=1;fillColor=none;dashed=1;" parent="1" vertex="1">
                    <mxGeometry x="-180" y="2051" width="280" height="320" as="geometry"/>
                </mxCell>
                <mxCell id="rNRXdAk5gesige0gg-Rm-52" value="" style="rounded=0;whiteSpace=wrap;html=1;fillColor=none;" parent="1" vertex="1">
                    <mxGeometry x="3760" y="1280" width="670" height="370" as="geometry"/>
                </mxCell>
                <mxCell id="rNRXdAk5gesige0gg-Rm-31" value="" style="rounded=1;whiteSpace=wrap;html=1;fillColor=none;dashed=1;" parent="1" vertex="1">
                    <mxGeometry x="2840" y="750" width="600" height="360" as="geometry"/>
                </mxCell>
                <mxCell id="rNRXdAk5gesige0gg-Rm-1" value="" style="rounded=1;whiteSpace=wrap;html=1;fillColor=none;dashed=1;" parent="1" vertex="1">
                    <mxGeometry x="1200" y="760" width="1400" height="360" as="geometry"/>
                </mxCell>
                <mxCell id="rNRXdAk5gesige0gg-Rm-2" value="Proxy Request" style="edgeStyle=orthogonalEdgeStyle;rounded=0;orthogonalLoop=1;jettySize=auto;html=1;entryX=0;entryY=0.5;entryDx=0;entryDy=0;entryPerimeter=0;endArrow=classic;endFill=1;strokeColor=#000000;" parent="1" source="rNRXdAk5gesige0gg-Rm-3" target="rNRXdAk5gesige0gg-Rm-5" edge="1">
                    <mxGeometry x="-0.0465" y="15" relative="1" as="geometry">
                        <mxPoint as="offset"/>
                    </mxGeometry>
                </mxCell>
                <mxCell id="rNRXdAk5gesige0gg-Rm-3" value="API Gateway&lt;br&gt;Exposed API&lt;br&gt;Name: data_recorder&lt;br&gt;POST /data-recorder/01" style="sketch=0;points=[[0,0,0],[0.25,0,0],[0.5,0,0],[0.75,0,0],[1,0,0],[0,1,0],[0.25,1,0],[0.5,1,0],[0.75,1,0],[1,1,0],[0,0.25,0],[0,0.5,0],[0,0.75,0],[1,0.25,0],[1,0.5,0],[1,0.75,0]];outlineConnect=0;fontColor=#232F3E;gradientColor=#FF4F8B;gradientDirection=north;fillColor=#BC1356;strokeColor=#ffffff;dashed=0;verticalLabelPosition=bottom;verticalAlign=top;align=center;html=1;fontSize=12;fontStyle=0;aspect=fixed;shape=mxgraph.aws4.resourceIcon;resIcon=mxgraph.aws4.api_gateway;" parent="1" vertex="1">
                    <mxGeometry x="1610" y="946" width="78" height="78" as="geometry"/>
                </mxCell>
                <mxCell id="rNRXdAk5gesige0gg-Rm-4" style="edgeStyle=orthogonalEdgeStyle;rounded=0;orthogonalLoop=1;jettySize=auto;html=1;entryX=0;entryY=0.5;entryDx=0;entryDy=0;entryPerimeter=0;" parent="1" source="rNRXdAk5gesige0gg-Rm-5" target="rNRXdAk5gesige0gg-Rm-8" edge="1">
                    <mxGeometry relative="1" as="geometry">
                        <mxPoint x="1890" y="985" as="targetPoint"/>
                    </mxGeometry>
                </mxCell>
                <mxCell id="rNRXdAk5gesige0gg-Rm-5" value="data_recorder_01" style="sketch=0;points=[[0,0,0],[0.25,0,0],[0.5,0,0],[0.75,0,0],[1,0,0],[0,1,0],[0.25,1,0],[0.5,1,0],[0.75,1,0],[1,1,0],[0,0.25,0],[0,0.5,0],[0,0.75,0],[1,0.25,0],[1,0.5,0],[1,0.75,0]];outlineConnect=0;fontColor=#232F3E;gradientColor=#F78E04;gradientDirection=north;fillColor=#D05C17;strokeColor=#ffffff;dashed=0;verticalLabelPosition=bottom;verticalAlign=top;align=center;html=1;fontSize=12;fontStyle=0;aspect=fixed;shape=mxgraph.aws4.resourceIcon;resIcon=mxgraph.aws4.lambda;" parent="1" vertex="1">
                    <mxGeometry x="1860" y="946" width="78" height="78" as="geometry"/>
                </mxCell>
                <mxCell id="rNRXdAk5gesige0gg-Rm-6" value="" style="sketch=0;pointerEvents=1;shadow=0;dashed=0;html=1;strokeColor=none;labelPosition=center;verticalLabelPosition=bottom;verticalAlign=top;outlineConnect=0;align=center;shape=mxgraph.office.security.lock_unprotected;fillColor=#7FBA42;" parent="1" vertex="1">
                    <mxGeometry x="1880" y="870" width="38" height="55" as="geometry"/>
                </mxCell>
                <mxCell id="rNRXdAk5gesige0gg-Rm-7" style="edgeStyle=orthogonalEdgeStyle;rounded=0;orthogonalLoop=1;jettySize=auto;html=1;entryX=0;entryY=0.5;entryDx=0;entryDy=0;entryPerimeter=0;" parent="1" source="rNRXdAk5gesige0gg-Rm-8" target="rNRXdAk5gesige0gg-Rm-10" edge="1">
                    <mxGeometry relative="1" as="geometry"/>
                </mxCell>
                <mxCell id="rNRXdAk5gesige0gg-Rm-8" value="Kinesis&lt;br&gt;data_recorder_01" style="sketch=0;points=[[0,0,0],[0.25,0,0],[0.5,0,0],[0.75,0,0],[1,0,0],[0,1,0],[0.25,1,0],[0.5,1,0],[0.75,1,0],[1,1,0],[0,0.25,0],[0,0.5,0],[0,0.75,0],[1,0.25,0],[1,0.5,0],[1,0.75,0]];outlineConnect=0;fontColor=#232F3E;gradientColor=#945DF2;gradientDirection=north;fillColor=#5A30B5;strokeColor=#ffffff;dashed=0;verticalLabelPosition=bottom;verticalAlign=top;align=center;html=1;fontSize=12;fontStyle=0;aspect=fixed;shape=mxgraph.aws4.resourceIcon;resIcon=mxgraph.aws4.kinesis;" parent="1" vertex="1">
                    <mxGeometry x="2078" y="946" width="78" height="78" as="geometry"/>
                </mxCell>
                <mxCell id="rNRXdAk5gesige0gg-Rm-9" style="edgeStyle=orthogonalEdgeStyle;rounded=0;orthogonalLoop=1;jettySize=auto;html=1;entryX=0;entryY=0.5;entryDx=0;entryDy=0;entryPerimeter=0;" parent="1" source="rNRXdAk5gesige0gg-Rm-10" target="rNRXdAk5gesige0gg-Rm-12" edge="1">
                    <mxGeometry relative="1" as="geometry"/>
                </mxCell>
                <mxCell id="rNRXdAk5gesige0gg-Rm-10" value="data_recorder_kconvert" style="sketch=0;points=[[0,0,0],[0.25,0,0],[0.5,0,0],[0.75,0,0],[1,0,0],[0,1,0],[0.25,1,0],[0.5,1,0],[0.75,1,0],[1,1,0],[0,0.25,0],[0,0.5,0],[0,0.75,0],[1,0.25,0],[1,0.5,0],[1,0.75,0]];outlineConnect=0;fontColor=#232F3E;gradientColor=#F78E04;gradientDirection=north;fillColor=#D05C17;strokeColor=#ffffff;dashed=0;verticalLabelPosition=bottom;verticalAlign=top;align=center;html=1;fontSize=12;fontStyle=0;aspect=fixed;shape=mxgraph.aws4.resourceIcon;resIcon=mxgraph.aws4.lambda;" parent="1" vertex="1">
                    <mxGeometry x="2282" y="946" width="78" height="78" as="geometry"/>
                </mxCell>
                <mxCell id="rNRXdAk5gesige0gg-Rm-11" style="edgeStyle=orthogonalEdgeStyle;rounded=0;orthogonalLoop=1;jettySize=auto;html=1;entryX=0;entryY=0.5;entryDx=0;entryDy=0;entryPerimeter=0;" parent="1" source="rNRXdAk5gesige0gg-Rm-12" target="rNRXdAk5gesige0gg-Rm-14" edge="1">
                    <mxGeometry relative="1" as="geometry"/>
                </mxCell>
                <mxCell id="rNRXdAk5gesige0gg-Rm-12" value="Firehose&lt;br&gt;data_recorder_01" style="sketch=0;points=[[0,0,0],[0.25,0,0],[0.5,0,0],[0.75,0,0],[1,0,0],[0,1,0],[0.25,1,0],[0.5,1,0],[0.75,1,0],[1,1,0],[0,0.25,0],[0,0.5,0],[0,0.75,0],[1,0.25,0],[1,0.5,0],[1,0.75,0]];outlineConnect=0;fontColor=#232F3E;gradientColor=#945DF2;gradientDirection=north;fillColor=#5A30B5;strokeColor=#ffffff;dashed=0;verticalLabelPosition=bottom;verticalAlign=top;align=center;html=1;fontSize=12;fontStyle=0;aspect=fixed;shape=mxgraph.aws4.resourceIcon;resIcon=mxgraph.aws4.kinesis_data_firehose;" parent="1" vertex="1">
                    <mxGeometry x="2482" y="946" width="78" height="78" as="geometry"/>
                </mxCell>
                <mxCell id="rNRXdAk5gesige0gg-Rm-13" style="edgeStyle=orthogonalEdgeStyle;rounded=0;orthogonalLoop=1;jettySize=auto;html=1;entryX=0;entryY=0.5;entryDx=0;entryDy=0;entryPerimeter=0;" parent="1" source="rNRXdAk5gesige0gg-Rm-14" target="rNRXdAk5gesige0gg-Rm-18" edge="1">
                    <mxGeometry relative="1" as="geometry">
                        <mxPoint x="2920" y="985" as="targetPoint"/>
                    </mxGeometry>
                </mxCell>
                <mxCell id="rNRXdAk5gesige0gg-Rm-14" value="data-recorder-bucket&lt;br&gt;/data-recordings/01" style="sketch=0;points=[[0,0,0],[0.25,0,0],[0.5,0,0],[0.75,0,0],[1,0,0],[0,1,0],[0.25,1,0],[0.5,1,0],[0.75,1,0],[1,1,0],[0,0.25,0],[0,0.5,0],[0,0.75,0],[1,0.25,0],[1,0.5,0],[1,0.75,0]];outlineConnect=0;fontColor=#232F3E;gradientColor=#60A337;gradientDirection=north;fillColor=#277116;strokeColor=#ffffff;dashed=0;verticalLabelPosition=bottom;verticalAlign=top;align=center;html=1;fontSize=12;fontStyle=0;aspect=fixed;shape=mxgraph.aws4.resourceIcon;resIcon=mxgraph.aws4.s3;" parent="1" vertex="1">
                    <mxGeometry x="2680" y="946" width="78" height="78" as="geometry"/>
                </mxCell>
                <mxCell id="rNRXdAk5gesige0gg-Rm-17" style="edgeStyle=orthogonalEdgeStyle;rounded=0;orthogonalLoop=1;jettySize=auto;html=1;entryX=0;entryY=0.5;entryDx=0;entryDy=0;entryPerimeter=0;" parent="1" source="rNRXdAk5gesige0gg-Rm-18" target="rNRXdAk5gesige0gg-Rm-20" edge="1">
                    <mxGeometry relative="1" as="geometry"/>
                </mxCell>
                <mxCell id="rNRXdAk5gesige0gg-Rm-18" value="data_recorder_01_sns" style="sketch=0;points=[[0,0,0],[0.25,0,0],[0.5,0,0],[0.75,0,0],[1,0,0],[0,1,0],[0.25,1,0],[0.5,1,0],[0.75,1,0],[1,1,0],[0,0.25,0],[0,0.5,0],[0,0.75,0],[1,0.25,0],[1,0.5,0],[1,0.75,0]];outlineConnect=0;fontColor=#232F3E;gradientColor=#FF4F8B;gradientDirection=north;fillColor=#BC1356;strokeColor=#ffffff;dashed=0;verticalLabelPosition=bottom;verticalAlign=top;align=center;html=1;fontSize=12;fontStyle=0;aspect=fixed;shape=mxgraph.aws4.resourceIcon;resIcon=mxgraph.aws4.sns;" parent="1" vertex="1">
                    <mxGeometry x="2880" y="946" width="78" height="78" as="geometry"/>
                </mxCell>
                <mxCell id="rNRXdAk5gesige0gg-Rm-19" style="edgeStyle=orthogonalEdgeStyle;rounded=0;orthogonalLoop=1;jettySize=auto;html=1;entryX=0;entryY=0.5;entryDx=0;entryDy=0;entryPerimeter=0;" parent="1" source="rNRXdAk5gesige0gg-Rm-20" target="rNRXdAk5gesige0gg-Rm-21" edge="1">
                    <mxGeometry relative="1" as="geometry"/>
                </mxCell>
                <mxCell id="rNRXdAk5gesige0gg-Rm-20" value="SQS&lt;br&gt;data_recorder_01" style="sketch=0;points=[[0,0,0],[0.25,0,0],[0.5,0,0],[0.75,0,0],[1,0,0],[0,1,0],[0.25,1,0],[0.5,1,0],[0.75,1,0],[1,1,0],[0,0.25,0],[0,0.5,0],[0,0.75,0],[1,0.25,0],[1,0.5,0],[1,0.75,0]];outlineConnect=0;fontColor=#232F3E;gradientColor=#FF4F8B;gradientDirection=north;fillColor=#BC1356;strokeColor=#ffffff;dashed=0;verticalLabelPosition=bottom;verticalAlign=top;align=center;html=1;fontSize=12;fontStyle=0;aspect=fixed;shape=mxgraph.aws4.resourceIcon;resIcon=mxgraph.aws4.sqs;" parent="1" vertex="1">
                    <mxGeometry x="3068" y="946" width="78" height="78" as="geometry"/>
                </mxCell>
                <mxCell id="rNRXdAk5gesige0gg-Rm-21" value="data_recorder_01_s3_event_handler" style="sketch=0;points=[[0,0,0],[0.25,0,0],[0.5,0,0],[0.75,0,0],[1,0,0],[0,1,0],[0.25,1,0],[0.5,1,0],[0.75,1,0],[1,1,0],[0,0.25,0],[0,0.5,0],[0,0.75,0],[1,0.25,0],[1,0.5,0],[1,0.75,0]];outlineConnect=0;fontColor=#232F3E;gradientColor=#F78E04;gradientDirection=north;fillColor=#D05C17;strokeColor=#ffffff;dashed=0;verticalLabelPosition=bottom;verticalAlign=top;align=center;html=1;fontSize=12;fontStyle=0;aspect=fixed;shape=mxgraph.aws4.resourceIcon;resIcon=mxgraph.aws4.lambda;" parent="1" vertex="1">
                    <mxGeometry x="3280" y="946" width="78" height="78" as="geometry"/>
                </mxCell>
                <mxCell id="rNRXdAk5gesige0gg-Rm-22" value="Route messages based on configuration.&lt;br&gt;NEW messages in&amp;nbsp;&lt;span style=&quot;color: rgb(35, 47, 62); text-align: center;&quot;&gt;/data-recordings/01&lt;/span&gt;&lt;span style=&quot;color: rgb(35, 47, 62); text-align: center;&quot;&gt;/ is routed to SNS topic &quot;&lt;/span&gt;&lt;span style=&quot;color: rgb(35, 47, 62); text-align: center;&quot;&gt;data_recorder_01&lt;/span&gt;&lt;span style=&quot;color: rgb(35, 47, 62); text-align: center;&quot;&gt;_sns&lt;/span&gt;&lt;span style=&quot;color: rgb(35, 47, 62); text-align: center;&quot;&gt;&quot;&lt;/span&gt;" style="text;html=1;strokeColor=#d6b656;fillColor=#fff2cc;align=left;verticalAlign=middle;whiteSpace=wrap;rounded=0;" parent="1" vertex="1">
                    <mxGeometry x="2958" y="820" width="320" height="80" as="geometry"/>
                </mxCell>
                <mxCell id="rNRXdAk5gesige0gg-Rm-23" value="" style="endArrow=none;dashed=1;html=1;rounded=0;strokeColor=#000000;entryX=0.5;entryY=0;entryDx=0;entryDy=0;exitX=0.5;exitY=1;exitDx=0;exitDy=0;entryPerimeter=0;" parent="1" source="rNRXdAk5gesige0gg-Rm-22" target="rNRXdAk5gesige0gg-Rm-21" edge="1">
                    <mxGeometry width="50" height="50" relative="1" as="geometry">
                        <mxPoint x="2520" y="1435" as="sourcePoint"/>
                        <mxPoint x="2610" y="1380" as="targetPoint"/>
                    </mxGeometry>
                </mxCell>
                <mxCell id="rNRXdAk5gesige0gg-Rm-24" style="edgeStyle=orthogonalEdgeStyle;rounded=0;orthogonalLoop=1;jettySize=auto;html=1;entryX=0.5;entryY=0;entryDx=0;entryDy=0;entryPerimeter=0;" parent="1" source="rNRXdAk5gesige0gg-Rm-25" target="rNRXdAk5gesige0gg-Rm-14" edge="1">
                    <mxGeometry relative="1" as="geometry"/>
                </mxCell>
                <mxCell id="rNRXdAk5gesige0gg-Rm-25" value="Athena" style="sketch=0;points=[[0,0,0],[0.25,0,0],[0.5,0,0],[0.75,0,0],[1,0,0],[0,1,0],[0.25,1,0],[0.5,1,0],[0.75,1,0],[1,1,0],[0,0.25,0],[0,0.5,0],[0,0.75,0],[1,0.25,0],[1,0.5,0],[1,0.75,0]];outlineConnect=0;fontColor=#232F3E;gradientColor=#945DF2;gradientDirection=north;fillColor=#5A30B5;strokeColor=#ffffff;dashed=0;verticalLabelPosition=bottom;verticalAlign=top;align=center;html=1;fontSize=12;fontStyle=0;aspect=fixed;shape=mxgraph.aws4.resourceIcon;resIcon=mxgraph.aws4.athena;" parent="1" vertex="1">
                    <mxGeometry x="2520" y="520" width="78" height="78" as="geometry"/>
                </mxCell>
                <mxCell id="rNRXdAk5gesige0gg-Rm-26" value="Converts the data to CSV" style="text;html=1;strokeColor=#d6b656;fillColor=#fff2cc;align=left;verticalAlign=middle;whiteSpace=wrap;rounded=0;" parent="1" vertex="1">
                    <mxGeometry x="2140" y="820" width="180" height="60" as="geometry"/>
                </mxCell>
                <mxCell id="rNRXdAk5gesige0gg-Rm-27" value="" style="endArrow=none;dashed=1;html=1;rounded=0;strokeColor=#000000;entryX=0.5;entryY=0;entryDx=0;entryDy=0;exitX=0.5;exitY=1;exitDx=0;exitDy=0;entryPerimeter=0;" parent="1" source="rNRXdAk5gesige0gg-Rm-26" target="rNRXdAk5gesige0gg-Rm-10" edge="1">
                    <mxGeometry width="50" height="50" relative="1" as="geometry">
                        <mxPoint x="3090" y="890" as="sourcePoint"/>
                        <mxPoint x="2968.999999999999" y="956" as="targetPoint"/>
                    </mxGeometry>
                </mxCell>
                <mxCell id="rNRXdAk5gesige0gg-Rm-28" style="edgeStyle=orthogonalEdgeStyle;rounded=0;orthogonalLoop=1;jettySize=auto;html=1;entryX=0;entryY=0.5;entryDx=0;entryDy=0;entryPerimeter=0;" parent="1" source="rNRXdAk5gesige0gg-Rm-29" target="rNRXdAk5gesige0gg-Rm-3" edge="1">
                    <mxGeometry relative="1" as="geometry"/>
                </mxCell>
                <mxCell id="rNRXdAk5gesige0gg-Rm-29" value="Data Producer" style="sketch=0;outlineConnect=0;fontColor=#232F3E;gradientColor=none;fillColor=#232F3D;strokeColor=none;dashed=0;verticalLabelPosition=bottom;verticalAlign=top;align=center;html=1;fontSize=12;fontStyle=0;aspect=fixed;pointerEvents=1;shape=mxgraph.aws4.user;" parent="1" vertex="1">
                    <mxGeometry x="1360" y="946" width="78" height="78" as="geometry"/>
                </mxCell>
                <mxCell id="rNRXdAk5gesige0gg-Rm-30" value="Data Capturing / Ingestion" style="text;html=1;strokeColor=none;fillColor=none;align=center;verticalAlign=middle;whiteSpace=wrap;rounded=0;dashed=1;" parent="1" vertex="1">
                    <mxGeometry x="1230" y="770" width="190" height="30" as="geometry"/>
                </mxCell>
                <mxCell id="rNRXdAk5gesige0gg-Rm-32" value="Data Processing On Event" style="text;html=1;strokeColor=none;fillColor=none;align=center;verticalAlign=middle;whiteSpace=wrap;rounded=0;dashed=1;" parent="1" vertex="1">
                    <mxGeometry x="3250" y="770" width="170" height="30" as="geometry"/>
                </mxCell>
                <mxCell id="rNRXdAk5gesige0gg-Rm-33" value="" style="rounded=1;whiteSpace=wrap;html=1;fillColor=none;dashed=1;" parent="1" vertex="1">
                    <mxGeometry x="2400" y="440" width="400" height="240" as="geometry"/>
                </mxCell>
                <mxCell id="rNRXdAk5gesige0gg-Rm-34" value="Query All Data" style="text;html=1;strokeColor=none;fillColor=none;align=center;verticalAlign=middle;whiteSpace=wrap;rounded=0;dashed=1;" parent="1" vertex="1">
                    <mxGeometry x="2515" y="450" width="170" height="30" as="geometry"/>
                </mxCell>
                <mxCell id="rNRXdAk5gesige0gg-Rm-40" style="edgeStyle=orthogonalEdgeStyle;rounded=0;orthogonalLoop=1;jettySize=auto;html=1;entryX=0;entryY=0.5;entryDx=0;entryDy=0;entryPerimeter=0;" parent="1" source="rNRXdAk5gesige0gg-Rm-35" target="rNRXdAk5gesige0gg-Rm-37" edge="1">
                    <mxGeometry relative="1" as="geometry"/>
                </mxCell>
                <mxCell id="rNRXdAk5gesige0gg-Rm-35" value="&lt;div style=&quot;color: rgb(248, 248, 242); background-color: rgb(40, 42, 54); font-family: &amp;quot;Droid Sans Mono&amp;quot;, &amp;quot;monospace&amp;quot;, monospace; font-size: 14px; line-height: 19px;&quot;&gt;&lt;span style=&quot;color: #8be9fd;&quot;&gt;S3EventStoreBucket&lt;/span&gt;&lt;/div&gt;" style="sketch=0;points=[[0,0,0],[0.25,0,0],[0.5,0,0],[0.75,0,0],[1,0,0],[0,1,0],[0.25,1,0],[0.5,1,0],[0.75,1,0],[1,1,0],[0,0.25,0],[0,0.5,0],[0,0.75,0],[1,0.25,0],[1,0.5,0],[1,0.75,0]];outlineConnect=0;fontColor=#232F3E;gradientColor=#60A337;gradientDirection=north;fillColor=#277116;strokeColor=#ffffff;dashed=0;verticalLabelPosition=bottom;verticalAlign=top;align=center;html=1;fontSize=12;fontStyle=0;aspect=fixed;shape=mxgraph.aws4.resourceIcon;resIcon=mxgraph.aws4.s3;" parent="1" vertex="1">
                    <mxGeometry x="2540" y="2090" width="78" height="78" as="geometry"/>
                </mxCell>
                <mxCell id="rNRXdAk5gesige0gg-Rm-36" style="edgeStyle=orthogonalEdgeStyle;rounded=0;orthogonalLoop=1;jettySize=auto;html=1;entryX=0;entryY=0.5;entryDx=0;entryDy=0;entryPerimeter=0;" parent="1" source="rNRXdAk5gesige0gg-Rm-37" target="rNRXdAk5gesige0gg-Rm-39" edge="1">
                    <mxGeometry relative="1" as="geometry"/>
                </mxCell>
                <mxCell id="rNRXdAk5gesige0gg-Rm-37" value="&lt;div style=&quot;color: rgb(248, 248, 242); background-color: rgb(40, 42, 54); font-family: &amp;quot;Droid Sans Mono&amp;quot;, &amp;quot;monospace&amp;quot;, monospace; font-size: 14px; line-height: 19px;&quot;&gt;&lt;span style=&quot;color: #8be9fd;&quot;&gt;S3EventStoreNotificationTopic&lt;/span&gt;&lt;/div&gt;" style="sketch=0;points=[[0,0,0],[0.25,0,0],[0.5,0,0],[0.75,0,0],[1,0,0],[0,1,0],[0.25,1,0],[0.5,1,0],[0.75,1,0],[1,1,0],[0,0.25,0],[0,0.5,0],[0,0.75,0],[1,0.25,0],[1,0.5,0],[1,0.75,0]];outlineConnect=0;fontColor=#232F3E;gradientColor=#FF4F8B;gradientDirection=north;fillColor=#BC1356;strokeColor=#ffffff;dashed=0;verticalLabelPosition=bottom;verticalAlign=top;align=center;html=1;fontSize=12;fontStyle=0;aspect=fixed;shape=mxgraph.aws4.resourceIcon;resIcon=mxgraph.aws4.sns;" parent="1" vertex="1">
                    <mxGeometry x="3020" y="2090" width="78" height="78" as="geometry"/>
                </mxCell>
                <mxCell id="rNRXdAk5gesige0gg-Rm-42" style="edgeStyle=orthogonalEdgeStyle;rounded=0;orthogonalLoop=1;jettySize=auto;html=1;entryX=0;entryY=0.5;entryDx=0;entryDy=0;entryPerimeter=0;" parent="1" source="rNRXdAk5gesige0gg-Rm-39" target="rNRXdAk5gesige0gg-Rm-41" edge="1">
                    <mxGeometry relative="1" as="geometry">
                        <Array as="points">
                            <mxPoint x="3549" y="1885"/>
                        </Array>
                    </mxGeometry>
                </mxCell>
                <mxCell id="rNRXdAk5gesige0gg-Rm-46" style="edgeStyle=orthogonalEdgeStyle;rounded=0;orthogonalLoop=1;jettySize=auto;html=1;entryX=0;entryY=0.5;entryDx=0;entryDy=0;entryPerimeter=0;" parent="1" source="rNRXdAk5gesige0gg-Rm-39" target="rNRXdAk5gesige0gg-Rm-45" edge="1">
                    <mxGeometry relative="1" as="geometry"/>
                </mxCell>
                <mxCell id="rNRXdAk5gesige0gg-Rm-39" value="&lt;div style=&quot;color: rgb(248, 248, 242); background-color: rgb(40, 42, 54); font-family: &amp;quot;Droid Sans Mono&amp;quot;, &amp;quot;monospace&amp;quot;, monospace; font-size: 14px; line-height: 19px;&quot;&gt;&lt;span style=&quot;color: #8be9fd;&quot;&gt;S3EventStoreNotificationQueue&lt;/span&gt;&lt;/div&gt;" style="sketch=0;points=[[0,0,0],[0.25,0,0],[0.5,0,0],[0.75,0,0],[1,0,0],[0,1,0],[0.25,1,0],[0.5,1,0],[0.75,1,0],[1,1,0],[0,0.25,0],[0,0.5,0],[0,0.75,0],[1,0.25,0],[1,0.5,0],[1,0.75,0]];outlineConnect=0;fontColor=#232F3E;gradientColor=#FF4F8B;gradientDirection=north;fillColor=#BC1356;strokeColor=#ffffff;dashed=0;verticalLabelPosition=bottom;verticalAlign=top;align=center;html=1;fontSize=12;fontStyle=0;aspect=fixed;shape=mxgraph.aws4.resourceIcon;resIcon=mxgraph.aws4.sqs;" parent="1" vertex="1">
                    <mxGeometry x="3510" y="2090" width="78" height="78" as="geometry"/>
                </mxCell>
                <mxCell id="rNRXdAk5gesige0gg-Rm-41" value="&lt;div style=&quot;color: rgb(248, 248, 242); background-color: rgb(40, 42, 54); font-family: &amp;quot;Droid Sans Mono&amp;quot;, &amp;quot;monospace&amp;quot;, monospace; font-size: 14px; line-height: 19px;&quot;&gt;&lt;span style=&quot;color: #8be9fd;&quot;&gt;S3EventStoreNotificationDeadLetterQueue&lt;/span&gt;&lt;/div&gt;" style="sketch=0;points=[[0,0,0],[0.25,0,0],[0.5,0,0],[0.75,0,0],[1,0,0],[0,1,0],[0.25,1,0],[0.5,1,0],[0.75,1,0],[1,1,0],[0,0.25,0],[0,0.5,0],[0,0.75,0],[1,0.25,0],[1,0.5,0],[1,0.75,0]];outlineConnect=0;fontColor=#232F3E;gradientColor=#FF4F8B;gradientDirection=north;fillColor=#BC1356;strokeColor=#ffffff;dashed=0;verticalLabelPosition=bottom;verticalAlign=top;align=center;html=1;fontSize=12;fontStyle=0;aspect=fixed;shape=mxgraph.aws4.resourceIcon;resIcon=mxgraph.aws4.sqs;" parent="1" vertex="1">
                    <mxGeometry x="3712" y="1846" width="78" height="78" as="geometry"/>
                </mxCell>
                <mxCell id="rNRXdAk5gesige0gg-Rm-43" value="&lt;div style=&quot;color: rgb(248, 248, 242); background-color: rgb(40, 42, 54); font-family: &amp;quot;Droid Sans Mono&amp;quot;, &amp;quot;monospace&amp;quot;, monospace; font-size: 14px; line-height: 19px;&quot;&gt;&lt;span style=&quot;color: #8be9fd;&quot;&gt;S3EventStoreNotificationPolicy&lt;/span&gt;&lt;/div&gt;" style="sketch=0;outlineConnect=0;fontColor=#232F3E;gradientColor=none;fillColor=#BF0816;strokeColor=none;dashed=0;verticalLabelPosition=bottom;verticalAlign=top;align=center;html=1;fontSize=12;fontStyle=0;aspect=fixed;pointerEvents=1;shape=mxgraph.aws4.permissions;" parent="1" vertex="1">
                    <mxGeometry x="2768" y="2170" width="62" height="78" as="geometry"/>
                </mxCell>
                <mxCell id="rNRXdAk5gesige0gg-Rm-44" value="&lt;div style=&quot;color: rgb(248, 248, 242); background-color: rgb(40, 42, 54); font-family: &amp;quot;Droid Sans Mono&amp;quot;, &amp;quot;monospace&amp;quot;, monospace; font-size: 14px; line-height: 19px;&quot;&gt;&lt;div style=&quot;line-height: 19px;&quot;&gt;&lt;span style=&quot;color: #8be9fd;&quot;&gt;SnsToSqsPolicy&lt;/span&gt;&lt;/div&gt;&lt;/div&gt;" style="sketch=0;outlineConnect=0;fontColor=#232F3E;gradientColor=none;fillColor=#BF0816;strokeColor=none;dashed=0;verticalLabelPosition=bottom;verticalAlign=top;align=center;html=1;fontSize=12;fontStyle=0;aspect=fixed;pointerEvents=1;shape=mxgraph.aws4.permissions;" parent="1" vertex="1">
                    <mxGeometry x="3298" y="2168" width="62" height="78" as="geometry"/>
                </mxCell>
                <mxCell id="rNRXdAk5gesige0gg-Rm-48" style="edgeStyle=orthogonalEdgeStyle;rounded=0;orthogonalLoop=1;jettySize=auto;html=1;entryX=0;entryY=0.5;entryDx=0;entryDy=0;entryPerimeter=0;" parent="1" source="rNRXdAk5gesige0gg-Rm-45" target="rNRXdAk5gesige0gg-Rm-47" edge="1">
                    <mxGeometry relative="1" as="geometry">
                        <Array as="points">
                            <mxPoint x="4170" y="1780"/>
                            <mxPoint x="4350" y="1780"/>
                        </Array>
                    </mxGeometry>
                </mxCell>
                <mxCell id="rNRXdAk5gesige0gg-Rm-55" style="edgeStyle=orthogonalEdgeStyle;rounded=0;orthogonalLoop=1;jettySize=auto;html=1;entryX=0.5;entryY=1;entryDx=0;entryDy=0;endArrow=classic;endFill=1;" parent="1" source="rNRXdAk5gesige0gg-Rm-45" target="rNRXdAk5gesige0gg-Rm-52" edge="1">
                    <mxGeometry relative="1" as="geometry">
                        <Array as="points">
                            <mxPoint x="4150" y="1870"/>
                            <mxPoint x="4095" y="1870"/>
                        </Array>
                    </mxGeometry>
                </mxCell>
                <mxCell id="rNRXdAk5gesige0gg-Rm-45" value="&lt;div style=&quot;color: rgb(248, 248, 242); background-color: rgb(40, 42, 54); font-family: &amp;quot;Droid Sans Mono&amp;quot;, &amp;quot;monospace&amp;quot;, monospace; font-size: 14px; line-height: 19px;&quot;&gt;&lt;span style=&quot;color: #8be9fd;&quot;&gt;EventMockProcessingLambdaFunction&lt;/span&gt;&lt;/div&gt;" style="sketch=0;points=[[0,0,0],[0.25,0,0],[0.5,0,0],[0.75,0,0],[1,0,0],[0,1,0],[0.25,1,0],[0.5,1,0],[0.75,1,0],[1,1,0],[0,0.25,0],[0,0.5,0],[0,0.75,0],[1,0.25,0],[1,0.5,0],[1,0.75,0]];outlineConnect=0;fontColor=#232F3E;gradientColor=#F78E04;gradientDirection=north;fillColor=#D05C17;strokeColor=#ffffff;dashed=0;verticalLabelPosition=bottom;verticalAlign=top;align=center;html=1;fontSize=12;fontStyle=0;aspect=fixed;shape=mxgraph.aws4.resourceIcon;resIcon=mxgraph.aws4.lambda;" parent="1" vertex="1">
                    <mxGeometry x="4130" y="2090" width="78" height="78" as="geometry"/>
                </mxCell>
                <mxCell id="rNRXdAk5gesige0gg-Rm-47" value="CloudWatch" style="sketch=0;points=[[0,0,0],[0.25,0,0],[0.5,0,0],[0.75,0,0],[1,0,0],[0,1,0],[0.25,1,0],[0.5,1,0],[0.75,1,0],[1,1,0],[0,0.25,0],[0,0.5,0],[0,0.75,0],[1,0.25,0],[1,0.5,0],[1,0.75,0]];points=[[0,0,0],[0.25,0,0],[0.5,0,0],[0.75,0,0],[1,0,0],[0,1,0],[0.25,1,0],[0.5,1,0],[0.75,1,0],[1,1,0],[0,0.25,0],[0,0.5,0],[0,0.75,0],[1,0.25,0],[1,0.5,0],[1,0.75,0]];outlineConnect=0;fontColor=#232F3E;gradientColor=#F34482;gradientDirection=north;fillColor=#BC1356;strokeColor=#ffffff;dashed=0;verticalLabelPosition=bottom;verticalAlign=top;align=center;html=1;fontSize=12;fontStyle=0;aspect=fixed;shape=mxgraph.aws4.resourceIcon;resIcon=mxgraph.aws4.cloudwatch_2;" parent="1" vertex="1">
                    <mxGeometry x="4360" y="1740" width="78" height="78" as="geometry"/>
                </mxCell>
                <mxCell id="rNRXdAk5gesige0gg-Rm-53" style="edgeStyle=orthogonalEdgeStyle;rounded=0;orthogonalLoop=1;jettySize=auto;html=1;dashed=1;endArrow=none;endFill=0;" parent="1" source="rNRXdAk5gesige0gg-Rm-49" target="rNRXdAk5gesige0gg-Rm-47" edge="1">
                    <mxGeometry relative="1" as="geometry"/>
                </mxCell>
                <mxCell id="rNRXdAk5gesige0gg-Rm-49" value="&lt;div style=&quot;color: rgb(248, 248, 242); background-color: rgb(40, 42, 54); font-family: &amp;quot;Droid Sans Mono&amp;quot;, &amp;quot;monospace&amp;quot;, monospace; font-size: 14px; line-height: 19px;&quot;&gt;&lt;div style=&quot;line-height: 19px;&quot;&gt;&lt;div style=&quot;line-height: 19px;&quot;&gt;&lt;span style=&quot;color: #f1fa8c;&quot;&gt;EventMockProcessingLambdaFunctionPolicy01&lt;/span&gt;&lt;/div&gt;&lt;/div&gt;&lt;/div&gt;" style="sketch=0;outlineConnect=0;fontColor=#232F3E;gradientColor=none;fillColor=#BF0816;strokeColor=none;dashed=0;verticalLabelPosition=bottom;verticalAlign=top;align=center;html=1;fontSize=12;fontStyle=0;aspect=fixed;pointerEvents=1;shape=mxgraph.aws4.permissions;" parent="1" vertex="1">
                    <mxGeometry x="4160" y="1420" width="62" height="78" as="geometry"/>
                </mxCell>
                <mxCell id="rNRXdAk5gesige0gg-Rm-50" value="&lt;div style=&quot;color: rgb(248, 248, 242); background-color: rgb(40, 42, 54); font-family: &amp;quot;Droid Sans Mono&amp;quot;, &amp;quot;monospace&amp;quot;, monospace; font-size: 14px; line-height: 19px;&quot;&gt;&lt;span style=&quot;color: #8be9fd;&quot;&gt;EventMockProcessingLambdaFunctionRole&lt;/span&gt;&lt;/div&gt;" style="sketch=0;outlineConnect=0;fontColor=#232F3E;gradientColor=none;fillColor=#BF0816;strokeColor=none;dashed=0;verticalLabelPosition=bottom;verticalAlign=top;align=center;html=1;fontSize=12;fontStyle=0;aspect=fixed;pointerEvents=1;shape=mxgraph.aws4.role;" parent="1" vertex="1">
                    <mxGeometry x="4050" y="1320" width="78" height="44" as="geometry"/>
                </mxCell>
                <mxCell id="rNRXdAk5gesige0gg-Rm-54" style="edgeStyle=orthogonalEdgeStyle;rounded=0;orthogonalLoop=1;jettySize=auto;html=1;entryX=1;entryY=0.25;entryDx=0;entryDy=0;entryPerimeter=0;dashed=1;endArrow=none;endFill=0;" parent="1" source="rNRXdAk5gesige0gg-Rm-51" target="rNRXdAk5gesige0gg-Rm-39" edge="1">
                    <mxGeometry relative="1" as="geometry">
                        <Array as="points">
                            <mxPoint x="3710" y="1519"/>
                            <mxPoint x="3710" y="1730"/>
                            <mxPoint x="3990" y="1730"/>
                            <mxPoint x="3990" y="2110"/>
                        </Array>
                    </mxGeometry>
                </mxCell>
                <mxCell id="rNRXdAk5gesige0gg-Rm-51" value="&lt;div style=&quot;color: rgb(248, 248, 242); background-color: rgb(40, 42, 54); font-family: &amp;quot;Droid Sans Mono&amp;quot;, &amp;quot;monospace&amp;quot;, monospace; font-size: 14px; line-height: 19px;&quot;&gt;&lt;div style=&quot;line-height: 19px;&quot;&gt;&lt;div style=&quot;line-height: 19px;&quot;&gt;&lt;span style=&quot;color: #f1fa8c;&quot;&gt;EventMockProcessingLambdaFunctionPolicy02&lt;/span&gt;&lt;/div&gt;&lt;/div&gt;&lt;/div&gt;" style="sketch=0;outlineConnect=0;fontColor=#232F3E;gradientColor=none;fillColor=#BF0816;strokeColor=none;dashed=0;verticalLabelPosition=bottom;verticalAlign=top;align=center;html=1;fontSize=12;fontStyle=0;aspect=fixed;pointerEvents=1;shape=mxgraph.aws4.permissions;" parent="1" vertex="1">
                    <mxGeometry x="3920" y="1480" width="62" height="78" as="geometry"/>
                </mxCell>
                <mxCell id="rNRXdAk5gesige0gg-Rm-56" value="&lt;div style=&quot;color: rgb(248, 248, 242); background-color: rgb(40, 42, 54); font-family: &amp;quot;Droid Sans Mono&amp;quot;, &amp;quot;monospace&amp;quot;, monospace; font-size: 14px; line-height: 19px;&quot;&gt;&lt;span style=&quot;color: #8be9fd;&quot;&gt;EventMockProcessingLambdaFunctionEventSourceMapping&lt;/span&gt;&lt;/div&gt;" style="sketch=0;outlineConnect=0;fontColor=#232F3E;gradientColor=none;fillColor=#B0084D;strokeColor=none;dashed=0;verticalLabelPosition=bottom;verticalAlign=top;align=center;html=1;fontSize=12;fontStyle=0;aspect=fixed;pointerEvents=1;shape=mxgraph.aws4.event;" parent="1" vertex="1">
                    <mxGeometry x="3800" y="2160" width="78" height="78" as="geometry"/>
                </mxCell>
                <mxCell id="gmtj91rclVVDiSBkEWJ0-3" style="edgeStyle=orthogonalEdgeStyle;rounded=0;orthogonalLoop=1;jettySize=auto;html=1;entryX=0;entryY=0.5;entryDx=0;entryDy=0;" parent="1" source="gmtj91rclVVDiSBkEWJ0-1" target="gmtj91rclVVDiSBkEWJ0-2" edge="1">
                    <mxGeometry relative="1" as="geometry"/>
                </mxCell>
                <mxCell id="gmtj91rclVVDiSBkEWJ0-1" value="&lt;div style=&quot;color: rgb(248, 248, 242); background-color: rgb(40, 42, 54); font-family: &amp;quot;Droid Sans Mono&amp;quot;, &amp;quot;monospace&amp;quot;, monospace; font-size: 14px; line-height: 19px;&quot;&gt;&lt;span style=&quot;color: #8be9fd;&quot;&gt;PublicEventApiGateway&lt;/span&gt;&lt;/div&gt;" style="sketch=0;points=[[0,0,0],[0.25,0,0],[0.5,0,0],[0.75,0,0],[1,0,0],[0,1,0],[0.25,1,0],[0.5,1,0],[0.75,1,0],[1,1,0],[0,0.25,0],[0,0.5,0],[0,0.75,0],[1,0.25,0],[1,0.5,0],[1,0.75,0]];outlineConnect=0;fontColor=#232F3E;gradientColor=#945DF2;gradientDirection=north;fillColor=#5A30B5;strokeColor=#ffffff;dashed=0;verticalLabelPosition=bottom;verticalAlign=top;align=center;html=1;fontSize=12;fontStyle=0;aspect=fixed;shape=mxgraph.aws4.resourceIcon;resIcon=mxgraph.aws4.api_gateway;" parent="1" vertex="1">
                    <mxGeometry x="-1220" y="2091" width="78" height="78" as="geometry"/>
                </mxCell>
                <mxCell id="gmtj91rclVVDiSBkEWJ0-5" style="edgeStyle=orthogonalEdgeStyle;rounded=0;orthogonalLoop=1;jettySize=auto;html=1;entryX=0;entryY=0.5;entryDx=0;entryDy=0;" parent="1" source="gmtj91rclVVDiSBkEWJ0-2" target="gmtj91rclVVDiSBkEWJ0-4" edge="1">
                    <mxGeometry relative="1" as="geometry"/>
                </mxCell>
                <mxCell id="gmtj91rclVVDiSBkEWJ0-2" value="&lt;div style=&quot;color: rgb(248, 248, 242); background-color: rgb(40, 42, 54); font-family: &amp;quot;Droid Sans Mono&amp;quot;, &amp;quot;monospace&amp;quot;, monospace; font-size: 14px; line-height: 19px;&quot;&gt;&lt;span style=&quot;color: #8be9fd;&quot;&gt;PublicApiEVentRouteTest01&lt;/span&gt;&lt;/div&gt;" style="rounded=0;whiteSpace=wrap;html=1;" parent="1" vertex="1">
                    <mxGeometry x="-1010" y="2100" width="310" height="60" as="geometry"/>
                </mxCell>
                <mxCell id="gmtj91rclVVDiSBkEWJ0-8" style="edgeStyle=orthogonalEdgeStyle;rounded=0;orthogonalLoop=1;jettySize=auto;html=1;entryX=0;entryY=0.5;entryDx=0;entryDy=0;entryPerimeter=0;" parent="1" source="gmtj91rclVVDiSBkEWJ0-4" target="gmtj91rclVVDiSBkEWJ0-7" edge="1">
                    <mxGeometry relative="1" as="geometry"/>
                </mxCell>
                <mxCell id="gmtj91rclVVDiSBkEWJ0-4" value="&lt;div style=&quot;color: rgb(248, 248, 242); background-color: rgb(40, 42, 54); font-family: &amp;quot;Droid Sans Mono&amp;quot;, &amp;quot;monospace&amp;quot;, monospace; font-size: 14px; line-height: 19px;&quot;&gt;&lt;span style=&quot;color: #8be9fd;&quot;&gt;PublicApiEventIntegrationTest01&lt;/span&gt;&lt;/div&gt;" style="rounded=0;whiteSpace=wrap;html=1;" parent="1" vertex="1">
                    <mxGeometry x="-620" y="2100" width="320" height="60" as="geometry"/>
                </mxCell>
                <mxCell id="gmtj91rclVVDiSBkEWJ0-6" value="&lt;div style=&quot;color: rgb(248, 248, 242); background-color: rgb(40, 42, 54); font-family: &amp;quot;Droid Sans Mono&amp;quot;, &amp;quot;monospace&amp;quot;, monospace; font-size: 14px; line-height: 19px;&quot;&gt;&lt;span style=&quot;color: #8be9fd;&quot;&gt;PublicApiEventIntegrationTest01Permission&lt;/span&gt;&lt;/div&gt;" style="sketch=0;outlineConnect=0;fontColor=#232F3E;gradientColor=none;fillColor=#BF0816;strokeColor=none;dashed=0;verticalLabelPosition=bottom;verticalAlign=top;align=center;html=1;fontSize=12;fontStyle=0;aspect=fixed;pointerEvents=1;shape=mxgraph.aws4.permissions;" parent="1" vertex="1">
                    <mxGeometry x="-491" y="2181" width="62" height="78" as="geometry"/>
                </mxCell>
                <mxCell id="gmtj91rclVVDiSBkEWJ0-10" style="edgeStyle=orthogonalEdgeStyle;rounded=0;orthogonalLoop=1;jettySize=auto;html=1;" parent="1" source="gmtj91rclVVDiSBkEWJ0-7" target="gmtj91rclVVDiSBkEWJ0-9" edge="1">
                    <mxGeometry relative="1" as="geometry">
                        <Array as="points">
                            <mxPoint x="-40" y="1830"/>
                        </Array>
                    </mxGeometry>
                </mxCell>
                <mxCell id="gmtj91rclVVDiSBkEWJ0-33" style="edgeStyle=orthogonalEdgeStyle;rounded=0;orthogonalLoop=1;jettySize=auto;html=1;entryX=0;entryY=0.5;entryDx=0;entryDy=0;entryPerimeter=0;" parent="1" source="gmtj91rclVVDiSBkEWJ0-7" target="gmtj91rclVVDiSBkEWJ0-20" edge="1">
                    <mxGeometry relative="1" as="geometry"/>
                </mxCell>
                <mxCell id="gmtj91rclVVDiSBkEWJ0-7" value="&lt;div style=&quot;color: rgb(248, 248, 242); background-color: rgb(40, 42, 54); font-family: &amp;quot;Droid Sans Mono&amp;quot;, &amp;quot;monospace&amp;quot;, monospace; font-size: 14px; line-height: 19px;&quot;&gt;&lt;span style=&quot;color: #8be9fd;&quot;&gt;ApiTest01EventLambdaFunction&lt;/span&gt;&lt;/div&gt;" style="sketch=0;points=[[0,0,0],[0.25,0,0],[0.5,0,0],[0.75,0,0],[1,0,0],[0,1,0],[0.25,1,0],[0.5,1,0],[0.75,1,0],[1,1,0],[0,0.25,0],[0,0.5,0],[0,0.75,0],[1,0.25,0],[1,0.5,0],[1,0.75,0]];outlineConnect=0;fontColor=#232F3E;gradientColor=#F78E04;gradientDirection=north;fillColor=#D05C17;strokeColor=#ffffff;dashed=0;verticalLabelPosition=bottom;verticalAlign=top;align=center;html=1;fontSize=12;fontStyle=0;aspect=fixed;shape=mxgraph.aws4.resourceIcon;resIcon=mxgraph.aws4.lambda;" parent="1" vertex="1">
                    <mxGeometry x="-80" y="2091" width="78" height="78" as="geometry"/>
                </mxCell>
                <mxCell id="gmtj91rclVVDiSBkEWJ0-9" value="&lt;div style=&quot;color: rgb(248, 248, 242); background-color: rgb(40, 42, 54); font-family: &amp;quot;Droid Sans Mono&amp;quot;, &amp;quot;monospace&amp;quot;, monospace; font-size: 14px; line-height: 19px;&quot;&gt;&lt;span style=&quot;color: #8be9fd;&quot;&gt;ApiTest01EventLambdaFunctionLogGroup&lt;/span&gt;&lt;/div&gt;" style="sketch=0;outlineConnect=0;fontColor=#232F3E;gradientColor=none;fillColor=#B0084D;strokeColor=none;dashed=0;verticalLabelPosition=bottom;verticalAlign=top;align=center;html=1;fontSize=12;fontStyle=0;aspect=fixed;pointerEvents=1;shape=mxgraph.aws4.logs;" parent="1" vertex="1">
                    <mxGeometry x="-340" y="1801" width="78" height="58" as="geometry"/>
                </mxCell>
                <mxCell id="gmtj91rclVVDiSBkEWJ0-11" value="&lt;div style=&quot;color: rgb(248, 248, 242); background-color: rgb(40, 42, 54); font-family: &amp;quot;Droid Sans Mono&amp;quot;, &amp;quot;monospace&amp;quot;, monospace; font-size: 14px; line-height: 19px;&quot;&gt;&lt;span style=&quot;color: #8be9fd;&quot;&gt;PublicEventApiGatewaySandboxStageLogs&lt;/span&gt;&lt;/div&gt;" style="sketch=0;outlineConnect=0;fontColor=#232F3E;gradientColor=none;fillColor=#B0084D;strokeColor=none;dashed=0;verticalLabelPosition=bottom;verticalAlign=top;align=center;html=1;fontSize=12;fontStyle=0;aspect=fixed;pointerEvents=1;shape=mxgraph.aws4.logs;" parent="1" vertex="1">
                    <mxGeometry x="-1142" y="2241" width="78" height="58" as="geometry"/>
                </mxCell>
                <mxCell id="gmtj91rclVVDiSBkEWJ0-12" value="&lt;div style=&quot;color: rgb(248, 248, 242); background-color: rgb(40, 42, 54); font-family: &amp;quot;Droid Sans Mono&amp;quot;, &amp;quot;monospace&amp;quot;, monospace; font-size: 14px; line-height: 19px;&quot;&gt;&lt;span style=&quot;color: #8be9fd;&quot;&gt;ApiTest01EventLambdaFunctionRole&lt;/span&gt;&lt;/div&gt;" style="sketch=0;outlineConnect=0;fontColor=#232F3E;gradientColor=none;fillColor=#BF0816;strokeColor=none;dashed=0;verticalLabelPosition=bottom;verticalAlign=top;align=center;html=1;fontSize=12;fontStyle=0;aspect=fixed;pointerEvents=1;shape=mxgraph.aws4.role;" parent="1" vertex="1">
                    <mxGeometry x="-80" y="2225" width="78" height="44" as="geometry"/>
                </mxCell>
                <mxCell id="gmtj91rclVVDiSBkEWJ0-16" value="&lt;div style=&quot;color: rgb(248, 248, 242); background-color: rgb(40, 42, 54); font-family: &amp;quot;Droid Sans Mono&amp;quot;, &amp;quot;monospace&amp;quot;, monospace; font-size: 14px; line-height: 19px;&quot;&gt;&lt;div style=&quot;line-height: 19px;&quot;&gt;&lt;span style=&quot;color: #8be9fd;&quot;&gt;EventMockProcessingLambdaFunctionRole&lt;/span&gt;&lt;/div&gt;&lt;/div&gt;" style="sketch=0;outlineConnect=0;fontColor=#232F3E;gradientColor=none;fillColor=#BF0816;strokeColor=none;dashed=0;verticalLabelPosition=bottom;verticalAlign=top;align=center;html=1;fontSize=12;fontStyle=0;aspect=fixed;pointerEvents=1;shape=mxgraph.aws4.role;" parent="1" vertex="1">
                    <mxGeometry x="4370" y="2090" width="78" height="44" as="geometry"/>
                </mxCell>
                <mxCell id="gmtj91rclVVDiSBkEWJ0-31" value="&lt;div style=&quot;color: rgb(248, 248, 242); background-color: rgb(40, 42, 54); font-family: &amp;quot;Droid Sans Mono&amp;quot;, &amp;quot;monospace&amp;quot;, monospace; font-size: 14px; line-height: 19px;&quot;&gt;&lt;span style=&quot;color: #8be9fd;&quot;&gt;ProcessingConfiguration&lt;/span&gt;&lt;/div&gt;" style="edgeStyle=orthogonalEdgeStyle;rounded=0;orthogonalLoop=1;jettySize=auto;html=1;entryX=0;entryY=0.5;entryDx=0;entryDy=0;entryPerimeter=0;dashed=1;" parent="1" source="gmtj91rclVVDiSBkEWJ0-19" target="gmtj91rclVVDiSBkEWJ0-28" edge="1">
                    <mxGeometry x="0.1235" relative="1" as="geometry">
                        <Array as="points">
                            <mxPoint x="1388" y="2151"/>
                            <mxPoint x="1388" y="2401"/>
                            <mxPoint x="1268" y="2401"/>
                            <mxPoint x="1268" y="2650"/>
                        </Array>
                        <mxPoint y="1" as="offset"/>
                    </mxGeometry>
                </mxCell>
                <mxCell id="gmtj91rclVVDiSBkEWJ0-32" style="edgeStyle=orthogonalEdgeStyle;rounded=0;orthogonalLoop=1;jettySize=auto;html=1;entryX=0;entryY=0.5;entryDx=0;entryDy=0;entryPerimeter=0;" parent="1" source="gmtj91rclVVDiSBkEWJ0-19" target="rNRXdAk5gesige0gg-Rm-35" edge="1">
                    <mxGeometry relative="1" as="geometry"/>
                </mxCell>
                <mxCell id="gmtj91rclVVDiSBkEWJ0-19" value="&lt;div style=&quot;color: rgb(248, 248, 242); background-color: rgb(40, 42, 54); font-family: &amp;quot;Droid Sans Mono&amp;quot;, &amp;quot;monospace&amp;quot;, monospace; font-size: 14px; line-height: 19px;&quot;&gt;&lt;span style=&quot;color: #8be9fd;&quot;&gt;EventKinesisDeliveryStream&lt;/span&gt;&lt;/div&gt;" style="sketch=0;points=[[0,0,0],[0.25,0,0],[0.5,0,0],[0.75,0,0],[1,0,0],[0,1,0],[0.25,1,0],[0.5,1,0],[0.75,1,0],[1,1,0],[0,0.25,0],[0,0.5,0],[0,0.75,0],[1,0.25,0],[1,0.5,0],[1,0.75,0]];outlineConnect=0;fontColor=#232F3E;gradientColor=#945DF2;gradientDirection=north;fillColor=#5A30B5;strokeColor=#ffffff;dashed=0;verticalLabelPosition=bottom;verticalAlign=top;align=center;html=1;fontSize=12;fontStyle=0;aspect=fixed;shape=mxgraph.aws4.resourceIcon;resIcon=mxgraph.aws4.kinesis_data_firehose;" parent="1" vertex="1">
                    <mxGeometry x="1190" y="2091" width="78" height="78" as="geometry"/>
                </mxCell>
                <mxCell id="gmtj91rclVVDiSBkEWJ0-37" style="edgeStyle=orthogonalEdgeStyle;rounded=0;orthogonalLoop=1;jettySize=auto;html=1;entryX=0;entryY=0.5;entryDx=0;entryDy=0;entryPerimeter=0;" parent="1" source="gmtj91rclVVDiSBkEWJ0-20" target="gmtj91rclVVDiSBkEWJ0-19" edge="1">
                    <mxGeometry relative="1" as="geometry"/>
                </mxCell>
                <mxCell id="gmtj91rclVVDiSBkEWJ0-20" value="&lt;div style=&quot;color: rgb(248, 248, 242); background-color: rgb(40, 42, 54); font-family: &amp;quot;Droid Sans Mono&amp;quot;, &amp;quot;monospace&amp;quot;, monospace; font-size: 14px; line-height: 19px;&quot;&gt;&lt;span style=&quot;color: #8be9fd;&quot;&gt;EventKinesisStream&lt;/span&gt;&lt;/div&gt;" style="sketch=0;points=[[0,0,0],[0.25,0,0],[0.5,0,0],[0.75,0,0],[1,0,0],[0,1,0],[0.25,1,0],[0.5,1,0],[0.75,1,0],[1,1,0],[0,0.25,0],[0,0.5,0],[0,0.75,0],[1,0.25,0],[1,0.5,0],[1,0.75,0]];outlineConnect=0;fontColor=#232F3E;gradientColor=#945DF2;gradientDirection=north;fillColor=#5A30B5;strokeColor=#ffffff;dashed=0;verticalLabelPosition=bottom;verticalAlign=top;align=center;html=1;fontSize=12;fontStyle=0;aspect=fixed;shape=mxgraph.aws4.resourceIcon;resIcon=mxgraph.aws4.kinesis;" parent="1" vertex="1">
                    <mxGeometry x="708" y="2091" width="78" height="78" as="geometry"/>
                </mxCell>
                <mxCell id="gmtj91rclVVDiSBkEWJ0-21" value="&lt;div style=&quot;color: rgb(248, 248, 242); background-color: rgb(40, 42, 54); font-family: &amp;quot;Droid Sans Mono&amp;quot;, &amp;quot;monospace&amp;quot;, monospace; font-size: 14px; line-height: 19px;&quot;&gt;&lt;div style=&quot;line-height: 19px;&quot;&gt;&lt;div style=&quot;line-height: 19px;&quot;&gt;&lt;span style=&quot;color: #8be9fd;&quot;&gt;EventKinesisDeliveryStreamS3Role&lt;/span&gt;&lt;/div&gt;&lt;/div&gt;&lt;/div&gt;" style="sketch=0;outlineConnect=0;fontColor=#232F3E;gradientColor=none;fillColor=#BF0816;strokeColor=none;dashed=0;verticalLabelPosition=bottom;verticalAlign=top;align=center;html=1;fontSize=12;fontStyle=0;aspect=fixed;pointerEvents=1;shape=mxgraph.aws4.role;" parent="1" vertex="1">
                    <mxGeometry x="978" y="1911" width="78" height="44" as="geometry"/>
                </mxCell>
                <mxCell id="gmtj91rclVVDiSBkEWJ0-22" value="&lt;div style=&quot;color: rgb(248, 248, 242); background-color: rgb(40, 42, 54); font-family: &amp;quot;Droid Sans Mono&amp;quot;, &amp;quot;monospace&amp;quot;, monospace; font-size: 14px; line-height: 19px;&quot;&gt;&lt;div style=&quot;line-height: 19px;&quot;&gt;&lt;span style=&quot;color: #8be9fd;&quot;&gt;EventKinesisDeliveryStreamS3Policy&lt;/span&gt;&lt;/div&gt;&lt;/div&gt;" style="sketch=0;outlineConnect=0;fontColor=#232F3E;gradientColor=none;fillColor=#BF0816;strokeColor=none;dashed=0;verticalLabelPosition=bottom;verticalAlign=top;align=center;html=1;fontSize=12;fontStyle=0;aspect=fixed;pointerEvents=1;shape=mxgraph.aws4.permissions;" parent="1" vertex="1">
                    <mxGeometry x="986" y="1761" width="62" height="78" as="geometry"/>
                </mxCell>
                <mxCell id="gmtj91rclVVDiSBkEWJ0-23" value="&lt;div style=&quot;color: rgb(248, 248, 242); background-color: rgb(40, 42, 54); font-family: &amp;quot;Droid Sans Mono&amp;quot;, &amp;quot;monospace&amp;quot;, monospace; font-size: 14px; line-height: 19px;&quot;&gt;&lt;div style=&quot;line-height: 19px;&quot;&gt;&lt;div style=&quot;line-height: 19px;&quot;&gt;&lt;div style=&quot;line-height: 19px;&quot;&gt;&lt;span style=&quot;color: #8be9fd;&quot;&gt;EventKinesisDeliveryStreamSourceRole&lt;/span&gt;&lt;/div&gt;&lt;/div&gt;&lt;/div&gt;&lt;/div&gt;" style="sketch=0;outlineConnect=0;fontColor=#232F3E;gradientColor=none;fillColor=#BF0816;strokeColor=none;dashed=0;verticalLabelPosition=bottom;verticalAlign=top;align=center;html=1;fontSize=12;fontStyle=0;aspect=fixed;pointerEvents=1;shape=mxgraph.aws4.role;" parent="1" vertex="1">
                    <mxGeometry x="1408" y="1901" width="78" height="44" as="geometry"/>
                </mxCell>
                <mxCell id="gmtj91rclVVDiSBkEWJ0-24" value="&lt;div style=&quot;color: rgb(248, 248, 242); background-color: rgb(40, 42, 54); font-family: &amp;quot;Droid Sans Mono&amp;quot;, &amp;quot;monospace&amp;quot;, monospace; font-size: 14px; line-height: 19px;&quot;&gt;&lt;div style=&quot;line-height: 19px;&quot;&gt;&lt;div style=&quot;line-height: 19px;&quot;&gt;&lt;span style=&quot;color: #8be9fd;&quot;&gt;EventKinesisDeliveryStreamSourcePolicy&lt;/span&gt;&lt;/div&gt;&lt;/div&gt;&lt;/div&gt;" style="sketch=0;outlineConnect=0;fontColor=#232F3E;gradientColor=none;fillColor=#BF0816;strokeColor=none;dashed=0;verticalLabelPosition=bottom;verticalAlign=top;align=center;html=1;fontSize=12;fontStyle=0;aspect=fixed;pointerEvents=1;shape=mxgraph.aws4.permissions;" parent="1" vertex="1">
                    <mxGeometry x="1416" y="1751" width="62" height="78" as="geometry"/>
                </mxCell>
                <mxCell id="gmtj91rclVVDiSBkEWJ0-26" value="" style="rounded=1;whiteSpace=wrap;html=1;fillColor=none;dashed=1;" parent="1" vertex="1">
                    <mxGeometry x="1308" y="2591" width="880" height="140" as="geometry"/>
                </mxCell>
                <mxCell id="gmtj91rclVVDiSBkEWJ0-27" style="edgeStyle=orthogonalEdgeStyle;rounded=0;orthogonalLoop=1;jettySize=auto;html=1;entryX=0;entryY=0.5;entryDx=0;entryDy=0;entryPerimeter=0;" parent="1" source="gmtj91rclVVDiSBkEWJ0-28" target="gmtj91rclVVDiSBkEWJ0-29" edge="1">
                    <mxGeometry relative="1" as="geometry">
                        <Array as="points">
                            <mxPoint x="1548" y="2480"/>
                        </Array>
                    </mxGeometry>
                </mxCell>
                <mxCell id="gmtj91rclVVDiSBkEWJ0-28" value="&lt;div style=&quot;color: rgb(248, 248, 242); background-color: rgb(40, 42, 54); font-family: &amp;quot;Droid Sans Mono&amp;quot;, &amp;quot;monospace&amp;quot;, monospace; font-size: 14px; line-height: 19px;&quot;&gt;&lt;div style=&quot;line-height: 19px;&quot;&gt;&lt;span style=&quot;color: #8be9fd;&quot;&gt;EventKinesisDeliveryStreamProcessingLambdaFunction&lt;/span&gt;&lt;/div&gt;&lt;/div&gt;" style="sketch=0;points=[[0,0,0],[0.25,0,0],[0.5,0,0],[0.75,0,0],[1,0,0],[0,1,0],[0.25,1,0],[0.5,1,0],[0.75,1,0],[1,1,0],[0,0.25,0],[0,0.5,0],[0,0.75,0],[1,0.25,0],[1,0.5,0],[1,0.75,0]];outlineConnect=0;fontColor=#232F3E;gradientColor=#F78E04;gradientDirection=north;fillColor=#D05C17;strokeColor=#ffffff;dashed=0;verticalLabelPosition=bottom;verticalAlign=top;align=center;html=1;fontSize=12;fontStyle=0;aspect=fixed;shape=mxgraph.aws4.resourceIcon;resIcon=mxgraph.aws4.lambda;" parent="1" vertex="1">
                    <mxGeometry x="1508" y="2611" width="78" height="78" as="geometry"/>
                </mxCell>
                <mxCell id="gmtj91rclVVDiSBkEWJ0-29" value="&lt;div style=&quot;color: rgb(248, 248, 242); background-color: rgb(40, 42, 54); font-family: &amp;quot;Droid Sans Mono&amp;quot;, &amp;quot;monospace&amp;quot;, monospace; font-size: 14px; line-height: 19px;&quot;&gt;&lt;span style=&quot;color: #8be9fd;&quot;&gt;EventKinesisDeliveryStreamProcessingLambdaFunctionLogGroup&lt;/span&gt;&lt;/div&gt;" style="sketch=0;points=[[0,0,0],[0.25,0,0],[0.5,0,0],[0.75,0,0],[1,0,0],[0,1,0],[0.25,1,0],[0.5,1,0],[0.75,1,0],[1,1,0],[0,0.25,0],[0,0.5,0],[0,0.75,0],[1,0.25,0],[1,0.5,0],[1,0.75,0]];points=[[0,0,0],[0.25,0,0],[0.5,0,0],[0.75,0,0],[1,0,0],[0,1,0],[0.25,1,0],[0.5,1,0],[0.75,1,0],[1,1,0],[0,0.25,0],[0,0.5,0],[0,0.75,0],[1,0.25,0],[1,0.5,0],[1,0.75,0]];outlineConnect=0;fontColor=#232F3E;gradientColor=#F34482;gradientDirection=north;fillColor=#BC1356;strokeColor=#ffffff;dashed=0;verticalLabelPosition=bottom;verticalAlign=top;align=center;html=1;fontSize=12;fontStyle=0;aspect=fixed;shape=mxgraph.aws4.resourceIcon;resIcon=mxgraph.aws4.cloudwatch_2;" parent="1" vertex="1">
                    <mxGeometry x="1838" y="2441" width="78" height="78" as="geometry"/>
                </mxCell>
                <mxCell id="gmtj91rclVVDiSBkEWJ0-30" value="&lt;div style=&quot;color: rgb(248, 248, 242); background-color: rgb(40, 42, 54); font-family: &amp;quot;Droid Sans Mono&amp;quot;, &amp;quot;monospace&amp;quot;, monospace; font-size: 14px; line-height: 19px;&quot;&gt;&lt;div style=&quot;line-height: 19px;&quot;&gt;&lt;div style=&quot;line-height: 19px;&quot;&gt;&lt;span style=&quot;color: #8be9fd;&quot;&gt;EventKinesisDeliveryStreamProcessingLambdaFunctionRole&lt;/span&gt;&lt;/div&gt;&lt;/div&gt;&lt;/div&gt;" style="sketch=0;outlineConnect=0;fontColor=#232F3E;gradientColor=none;fillColor=#BF0816;strokeColor=none;dashed=0;verticalLabelPosition=bottom;verticalAlign=top;align=center;html=1;fontSize=12;fontStyle=0;aspect=fixed;pointerEvents=1;shape=mxgraph.aws4.role;" parent="1" vertex="1">
                    <mxGeometry x="1838" y="2611" width="78" height="44" as="geometry"/>
                </mxCell>
            </root>
        </mxGraphModel>
    </diagram>
</mxfile>